# xmcd CD database file
#
# Track frame offsets:
#	150
#	6557
#	22010
#	43991
#	60169
#	79695
#	82184
#	92000
#	110311
#	112024
#	133964
#	167126
#
# Disc length: 2480 seconds
#
# Revision: 0
# Processed by: cddbd v1.5.1PL0 Copyright (c) Steve Scherf et al.
# Submitted via: CDex 1.51
#
DISCID=a009ae0c
DTITLE=新居 昭乃 - 鉱石ラジオ+VOICES(Acoustic version)
DYEAR=1900
DGENRE=Vocal
TTITLE0=新居 昭乃 - Zincite Trance
TTITLE1=新居 昭乃 - 鉱石ラジオ
TTITLE2=新居 昭乃 - Satellite Song
TTITLE3=新居 昭乃 - エウロパの氷
TTITLE4=新居 昭乃 - きれいな感情
TTITLE5=新居 昭乃 - How about u
TTITLE6=新居 昭乃 - 赤い砂 白い花 (marrakesh mix)
TTITLE7=新居 昭乃 - Trance Transistor Table Radio
TTITLE8=新居 昭乃 - 案内マウス
TTITLE9=新居 昭乃 - WelcometoRiskcautionCorporatio
TTITLE10=新居 昭乃 - チェコの夢〜Fall
TTITLE11=新居 昭乃 - VOICES (Acoustic version)
EXTD=
EXTT0=
EXTT1=
EXTT2=
EXTT3=
EXTT4=
EXTT5=
EXTT6=
EXTT7=
EXTT8=
EXTT9=
EXTT10=
EXTT11=
PLAYORDER=
